# Blender 4.0.0
# www.blender.org
mtllib mesh_medpoly.mtl
o pPlane1
v 0.000000 0.000000 0.000000
v 0.000000 -0.001947 0.000000
v -0.144386 -0.000389 0.102736
v -0.144111 -0.000389 0.102850
v -0.144111 -0.000114 0.102736
v -0.144111 0.000000 0.102461
v -0.144386 -0.000114 0.102461
v -0.144500 -0.000389 0.102461
v 0.000000 0.000000 0.102461
v 0.000000 -0.000114 0.102736
v 0.000000 -0.000389 0.102850
v -0.144111 0.000000 0.000000
v -0.144386 -0.000114 0.000000
v -0.144500 -0.000389 0.000000
v 0.144111 -0.000114 0.102736
v 0.144111 -0.000389 0.102850
v 0.144386 -0.000389 0.102736
v 0.144500 -0.000389 0.102461
v 0.144386 -0.000114 0.102461
v 0.144111 0.000000 0.102461
v 0.144500 -0.000389 0.000000
v 0.144386 -0.000114 0.000000
v 0.144111 0.000000 0.000000
v -0.144386 -0.000114 -0.102461
v -0.144111 -0.000000 -0.102461
v -0.144111 -0.000114 -0.102736
v -0.144111 -0.000389 -0.102850
v -0.144386 -0.000389 -0.102736
v -0.144500 -0.000389 -0.102461
v 0.000000 -0.000389 -0.102850
v 0.000000 -0.000114 -0.102736
v 0.000000 -0.000000 -0.102461
v -0.144386 -0.001833 0.102461
v -0.144111 -0.001947 0.102461
v -0.144111 -0.001833 0.102736
v -0.144111 -0.001557 0.102850
v -0.144386 -0.001557 0.102736
v -0.144500 -0.001557 0.102461
v 0.144111 -0.001833 0.102736
v 0.144111 -0.001947 0.102461
v 0.144386 -0.001833 0.102461
v 0.144500 -0.001557 0.102461
v 0.144386 -0.001557 0.102736
v 0.144111 -0.001557 0.102850
v 0.000000 -0.001557 0.102850
v 0.000000 -0.001833 0.102736
v 0.000000 -0.001947 0.102461
v 0.144386 -0.000114 -0.102461
v 0.144500 -0.000389 -0.102461
v 0.144386 -0.000389 -0.102736
v 0.144111 -0.000389 -0.102850
v 0.144111 -0.000114 -0.102736
v 0.144111 -0.000000 -0.102461
v 0.144386 -0.001833 -0.102461
v 0.144111 -0.001947 -0.102461
v 0.144111 -0.001833 -0.102736
v 0.144111 -0.001557 -0.102850
v 0.144386 -0.001557 -0.102736
v 0.144500 -0.001557 -0.102461
v 0.144111 -0.001947 0.000000
v 0.144386 -0.001833 0.000000
v 0.144500 -0.001557 0.000000
v -0.144386 -0.001833 -0.102461
v -0.144500 -0.001557 -0.102461
v -0.144386 -0.001557 -0.102736
v -0.144111 -0.001557 -0.102850
v -0.144111 -0.001833 -0.102736
v -0.144111 -0.001947 -0.102461
v 0.000000 -0.001557 -0.102850
v 0.000000 -0.001833 -0.102736
v 0.000000 -0.001947 -0.102461
v -0.144500 -0.001557 0.000000
v -0.144386 -0.001833 0.000000
v -0.144111 -0.001947 0.000000
v -0.144335 -0.000165 0.102685
v 0.144335 -0.000165 0.102685
v -0.144335 -0.000165 -0.102685
v -0.144335 -0.001782 0.102685
v 0.144335 -0.001782 0.102685
v 0.144335 -0.000165 -0.102685
v 0.144335 -0.001782 -0.102685
v -0.144335 -0.001782 -0.102685
vn -0.0007 0.0787 0.9969
vn -0.3765 0.0512 0.9250
vn -0.3765 -0.0512 0.9250
vn -0.0007 -0.0787 0.9969
vn -0.9250 0.0512 0.3765
vn -0.9969 0.0787 0.0010
vn -0.9969 -0.0787 0.0010
vn -0.9250 -0.0512 0.3765
vn -0.0008 1.0000 0.0011
vn -0.0005 0.9239 0.3826
vn -0.0000 0.9239 0.3827
vn -0.0000 1.0000 0.0011
vn -0.0005 0.3826 0.9239
vn -0.0000 0.0788 0.9969
vn -0.0000 0.3827 0.9239
vn -0.9969 0.0788 -0.0000
vn -0.9239 0.3827 -0.0000
vn -0.9239 0.3826 -0.0007
vn -0.9969 0.0787 -0.0010
vn -0.3827 0.9239 -0.0000
vn -0.0008 1.0000 -0.0000
vn -0.0008 1.0000 -0.0011
vn -0.3826 0.9239 -0.0007
vn 0.9969 0.0787 0.0010
vn 0.9250 0.0512 0.3765
vn 0.9250 -0.0512 0.3765
vn 0.9969 -0.0787 0.0010
vn 0.3765 0.0512 0.9250
vn 0.0007 0.0787 0.9969
vn 0.0007 -0.0787 0.9969
vn 0.3765 -0.0512 0.9250
vn 0.0008 1.0000 -0.0000
vn 0.3827 0.9239 -0.0000
vn 0.3826 0.9239 -0.0007
vn 0.0008 1.0000 -0.0011
vn 0.9239 0.3827 -0.0000
vn 0.9969 0.0788 -0.0000
vn 0.9969 0.0787 -0.0010
vn 0.9239 0.3826 -0.0007
vn -0.0007 0.0787 -0.9969
vn -0.0005 0.3826 -0.9239
vn -0.0000 0.3827 -0.9239
vn -0.0000 0.0788 -0.9969
vn -0.0005 0.9239 -0.3826
vn -0.0001 1.0000 -0.0011
vn -0.0000 0.9239 -0.3827
vn -0.9250 0.0512 -0.3765
vn -0.9250 -0.0512 -0.3765
vn -0.9969 -0.0787 -0.0010
vn -0.3765 0.0512 -0.9250
vn -0.0007 -0.0787 -0.9969
vn -0.3765 -0.0512 -0.9250
vn -0.0005 -0.3826 0.9239
vn -0.0000 -0.3827 0.9239
vn -0.0000 -0.0788 0.9969
vn -0.0005 -0.9239 0.3826
vn -0.0008 -1.0000 0.0011
vn -0.0001 -1.0000 0.0011
vn -0.0000 -0.9239 0.3827
vn 0.0007 0.0787 -0.9969
vn 0.3765 0.0512 -0.9250
vn 0.3765 -0.0512 -0.9250
vn 0.0007 -0.0787 -0.9969
vn 0.9250 0.0512 -0.3765
vn 0.9969 -0.0787 -0.0010
vn 0.9250 -0.0512 -0.3765
vn 0.0008 -1.0000 -0.0011
vn 0.3826 -0.9239 -0.0007
vn 0.3827 -0.9239 -0.0000
vn 0.0008 -1.0000 -0.0000
vn 0.9239 -0.3826 -0.0007
vn 0.9969 -0.0788 -0.0000
vn 0.9239 -0.3827 -0.0000
vn 0.0005 -0.3826 -0.9239
vn -0.0000 -0.3827 -0.9239
vn -0.0000 -0.0788 -0.9969
vn 0.0005 -0.9239 -0.3826
vn 0.0001 -1.0000 -0.0011
vn -0.0000 -0.9239 -0.3827
vn -0.9239 -0.3826 -0.0007
vn -0.9239 -0.3827 -0.0000
vn -0.9969 -0.0788 -0.0000
vn -0.3826 -0.9239 -0.0007
vn -0.0008 -1.0000 -0.0011
vn -0.0008 -1.0000 -0.0001
vn -0.3827 -0.9239 -0.0000
vn -0.0000 -1.0000 -0.0000
vn -0.0000 1.0000 -0.0000
vn 0.0008 1.0000 0.0011
vn 0.0008 -1.0000 0.0011
vn 0.0005 0.9239 0.3826
vn 0.0005 0.3826 0.9239
vn -0.9239 0.3826 0.0007
vn -0.3826 0.9239 0.0007
vn 0.3826 0.9239 0.0007
vn 0.9239 0.3826 0.0007
vn 0.0005 0.3826 -0.9239
vn 0.0005 0.9239 -0.3826
vn 0.0005 -0.9239 0.3826
vn 0.0005 -0.3826 0.9239
vn 0.9239 -0.3826 0.0007
vn 0.3826 -0.9239 0.0007
vn -0.0005 -0.9239 -0.3826
vn -0.0005 -0.3826 -0.9239
vn -0.3826 -0.9239 0.0007
vn -0.9239 -0.3826 0.0007
vn -0.8879 0.3252 0.3253
vn -0.3253 0.3253 0.8879
vn -0.3253 0.8879 0.3253
vn 0.3253 0.8879 0.3253
vn 0.3253 0.3253 0.8879
vn 0.8879 0.3252 0.3253
vn -0.8879 0.3252 -0.3253
vn -0.3253 0.8879 -0.3253
vn -0.3253 0.3253 -0.8879
vn -0.8879 -0.3252 0.3253
vn -0.3253 -0.8879 0.3253
vn -0.3253 -0.3253 0.8879
vn 0.3253 -0.3253 0.8879
vn 0.3253 -0.8879 0.3253
vn 0.8879 -0.3252 0.3253
vn 0.3253 0.8879 -0.3253
vn 0.8879 0.3252 -0.3253
vn 0.3253 0.3253 -0.8879
vn 0.8879 -0.3252 -0.3253
vn 0.3253 -0.8879 -0.3253
vn 0.3253 -0.3253 -0.8879
vn -0.3253 -0.8879 -0.3253
vn -0.8879 -0.3252 -0.3253
vn -0.3253 -0.3253 -0.8879
vt 0.721787 0.991901
vt 0.721787 0.992020
vt 0.721284 0.992020
vt 0.721284 0.991901
vt 0.856281 0.885459
vt 0.856281 0.885577
vt 0.855779 0.885577
vt 0.855779 0.885459
vt 0.750872 0.989540
vt 0.750752 0.989540
vt 0.750752 0.927522
vt 0.750872 0.927522
vt 0.721905 0.991901
vt 0.721787 0.929884
vt 0.721905 0.929884
vt 0.856281 0.929671
vt 0.856400 0.929671
vt 0.856400 0.973764
vt 0.856281 0.973764
vt 0.795396 0.989658
vt 0.795396 0.989540
vt 0.839920 0.989540
vt 0.839920 0.989658
vt 0.846016 0.974945
vt 0.846016 0.975064
vt 0.845509 0.975064
vt 0.845509 0.974945
vt 0.721787 0.867748
vt 0.721787 0.867866
vt 0.721284 0.867866
vt 0.721284 0.867748
vt 0.795396 0.865505
vt 0.795396 0.865386
vt 0.839920 0.865386
vt 0.839920 0.865505
vt 0.846136 0.930851
vt 0.846016 0.930851
vt 0.846016 0.886758
vt 0.846136 0.886758
vt 0.737779 0.990721
vt 0.737661 0.990721
vt 0.737661 0.928703
vt 0.737779 0.928703
vt 0.840040 0.989540
vt 0.839920 0.927522
vt 0.840040 0.927522
vt 0.856281 0.973883
vt 0.855779 0.973883
vt 0.855779 0.973764
vt 0.737779 0.990839
vt 0.738282 0.990721
vt 0.738282 0.990839
vt 0.721166 0.991901
vt 0.721166 0.929884
vt 0.721284 0.929884
vt 0.963541 0.993082
vt 0.963422 0.993082
vt 0.963422 0.931064
vt 0.963541 0.931064
vt 0.737779 0.866686
vt 0.737779 0.866567
vt 0.738282 0.866567
vt 0.738282 0.866686
vt 0.846016 0.886639
vt 0.845509 0.886758
vt 0.845509 0.886639
vt 0.875235 0.869047
vt 0.875235 0.868929
vt 0.919329 0.868929
vt 0.919329 0.869047
vt 0.845389 0.886758
vt 0.845509 0.930851
vt 0.845389 0.930851
vt 0.738400 0.866686
vt 0.738400 0.928703
vt 0.738282 0.928703
vt 0.875117 0.869047
vt 0.875235 0.931064
vt 0.875117 0.931064
vt 0.855660 0.973764
vt 0.855660 0.929671
vt 0.855779 0.929671
vt 0.875235 0.993200
vt 0.875235 0.993082
vt 0.919329 0.993082
vt 0.919329 0.993200
vt 0.423299 0.870772
vt 0.423299 0.925171
vt 0.499812 0.925171
vt 0.499812 0.870772
vt 0.001347 0.145465
vt 0.500000 0.145465
vt 0.500000 0.500000
vt 0.001347 0.500000
vt 0.998653 0.145465
vt 0.998653 0.500000
vt 0.576325 0.925171
vt 0.576325 0.870772
vt 0.500000 0.854535
vt 0.001347 0.854535
vt 0.423299 0.979571
vt 0.499812 0.979571
vt 0.576325 0.979571
vt 0.998653 0.854535
vt 0.750752 0.865505
vt 0.750872 0.865505
vt 0.721905 0.867866
vt 0.856400 0.885577
vt 0.750872 0.989658
vt 0.750872 0.865386
vt 0.846136 0.974945
vt 0.737661 0.866686
vt 0.840040 0.865505
vt 0.963422 0.869047
vt 0.963541 0.869047
vt 0.721166 0.867866
vt 0.845389 0.974945
vt 0.963422 0.868929
vt 0.875117 0.993082
vt 0.738400 0.990721
vt 0.963422 0.993200
vt 0.855660 0.885577
vt 0.856378 0.885480
vt 0.721884 0.991998
vt 0.750774 0.989637
vt 0.750774 0.865408
vt 0.721884 0.867770
vt 0.846114 0.975042
vt 0.856378 0.973861
vt 0.840018 0.989637
vt 0.737682 0.990817
vt 0.855682 0.885480
vt 0.963519 0.993179
vt 0.721187 0.991998
vt 0.721187 0.867770
vt 0.963519 0.868950
vt 0.845411 0.975042
vt 0.840018 0.865408
vt 0.846114 0.886661
vt 0.737682 0.866589
vt 0.845411 0.886661
vt 0.875138 0.868950
vt 0.738378 0.866589
vt 0.875138 0.993179
vt 0.855682 0.973861
vt 0.738378 0.990817
s 1
usemtl ColorCheckerChart
f 4/1/1 3/2/2 37/3/3 36/4/4
f 3/5/5 8/6/6 38/7/7 37/8/8
f 6/9/9 5/10/10 10/11/11 9/12/12
f 5/13/13 4/1/1 11/14/14 10/15/15
f 14/16/16 13/17/17 24/18/18 29/19/19
f 13/20/20 12/21/21 25/22/22 24/23/23
f 18/24/24 17/25/25 43/26/26 42/27/27
f 17/28/28 16/29/29 44/30/30 43/31/31
f 23/32/32 22/33/33 48/34/34 53/35/35
f 22/36/36 21/37/37 49/38/38 48/39/39
f 27/40/40 26/41/41 31/42/42 30/43/43
f 26/44/44 25/22/22 32/45/45 31/46/46
f 29/19/19 28/47/47 65/48/48 64/49/49
f 28/50/50 27/40/40 66/51/51 65/52/52
f 36/4/4 35/53/53 46/54/54 45/55/55
f 35/56/56 34/57/57 47/58/58 46/59/59
f 51/60/60 50/61/61 58/62/62 57/63/63
f 50/64/64 49/38/38 59/65/65 58/66/66
f 55/67/67 54/68/68 61/69/69 60/70/70
f 54/71/71 59/65/65 62/72/72 61/73/73
f 57/63/63 56/74/74 70/75/75 69/76/76
f 56/77/77 55/67/67 71/78/78 70/79/79
f 64/49/49 63/80/80 73/81/81 72/82/82
f 63/83/83 68/84/84 74/85/85 73/86/86
f 34/87/57 74/88/85 2/89/87 47/90/58
f 6/91/9 9/92/12 1/93/88 12/94/21
f 4/1/1 36/4/4 45/55/55 11/14/14
f 18/24/24 42/27/27 62/72/72 21/37/37
f 30/43/43 69/76/76 66/51/51 27/40/40
f 14/16/16 72/82/82 38/7/7 8/6/6
f 9/92/12 20/95/89 23/96/32 1/93/88
f 51/60/60 57/63/63 69/76/76 30/43/43
f 47/90/58 2/89/87 60/97/70 40/98/90
f 11/14/14 45/55/55 44/30/30 16/29/29
f 12/94/21 1/93/88 32/99/45 25/100/22
f 29/19/19 64/49/49 72/82/82 14/16/16
f 2/89/87 74/88/85 68/101/84 71/102/78
f 60/97/70 2/89/87 71/102/78 55/103/67
f 21/37/37 62/72/72 59/65/65 49/38/38
f 1/93/88 23/96/32 53/104/35 32/99/45
f 9/12/12 10/11/11 15/105/91 20/106/89
f 10/15/15 11/14/14 16/29/29 15/107/92
f 8/6/6 7/108/93 13/17/17 14/16/16
f 7/109/94 6/9/9 12/21/21 13/20/20
f 20/106/89 19/110/95 22/33/33 23/32/32
f 19/111/96 18/24/24 21/37/37 22/36/36
f 30/43/43 31/42/42 52/112/97 51/60/60
f 31/46/46 32/45/45 53/35/35 52/113/98
f 40/114/90 39/115/99 46/59/59 47/58/58
f 39/116/100 44/30/30 45/55/55 46/54/54
f 42/27/27 41/117/101 61/73/73 62/72/72
f 41/118/102 40/114/90 60/70/70 61/69/69
f 68/84/84 67/119/103 70/79/79 71/78/78
f 67/120/104 66/51/51 69/76/76 70/75/75
f 34/57/57 33/121/105 73/86/86 74/85/85
f 33/122/106 38/7/7 72/82/82 73/81/81
f 7/108/93 8/6/6 3/5/5 75/123/107
f 3/2/2 4/1/1 5/13/13 75/124/108
f 5/10/10 6/9/9 7/109/94 75/125/109
f 19/110/95 20/106/89 15/105/91 76/126/110
f 15/107/92 16/29/29 17/28/28 76/127/111
f 17/25/25 18/24/24 19/111/96 76/128/112
f 28/47/47 29/19/19 24/18/18 77/129/113
f 24/23/23 25/22/22 26/44/44 77/130/114
f 26/41/41 27/40/40 28/50/50 77/131/115
f 37/8/8 38/7/7 33/122/106 78/132/116
f 33/121/105 34/57/57 35/56/56 78/133/117
f 35/53/53 36/4/4 37/3/3 78/134/118
f 43/31/31 44/30/30 39/116/100 79/135/119
f 39/115/99 40/114/90 41/118/102 79/136/120
f 41/117/101 42/27/27 43/26/26 79/137/121
f 52/113/98 53/35/35 48/34/34 80/138/122
f 48/39/39 49/38/38 50/64/64 80/139/123
f 50/61/61 51/60/60 52/112/97 80/140/124
f 58/66/66 59/65/65 54/71/71 81/141/125
f 54/68/68 55/67/67 56/77/77 81/142/126
f 56/74/74 57/63/63 58/62/62 81/143/127
f 67/119/103 68/84/84 63/83/83 82/144/128
f 63/80/80 64/49/49 65/48/48 82/145/129
f 65/52/52 66/51/51 67/120/104 82/146/130
